HIERARCHY
ROOT Hips
{
	OFFSET -3.958830 18.904000 13.208200
	CHANNELS 6 Xposition Yposition Zposition Zrotation Yrotation Xrotation 
	JOINT LHipJoint
	{
		OFFSET 0.000000 0.000000 0.000000
		CHANNELS 3 Zrotation Yrotation Xrotation
		JOINT LeftUpLeg
		{
			OFFSET 1.800000 -1.400000 0.085000
			CHANNELS 3 Zrotation Yrotation Xrotation
			JOINT LeftLeg
			{
				OFFSET 2.215000 -6.000000 0.000000
				CHANNELS 3 Zrotation Yrotation Xrotation
				JOINT LeftFoot
				{
					OFFSET 2.500000 -6.900000 0.000000
					CHANNELS 3 Zrotation Yrotation Xrotation
					JOINT LeftToeBase
					{
						OFFSET 0.200000 -0.500000 1.950000
						CHANNELS 3 Zrotation Yrotation Xrotation
						End Site
						{
							OFFSET 0.000000 0.000000 0.000000
						}
					}
				}
			}
		}
	}
	JOINT RHipJoint
	{
		OFFSET 0.000000 0.000000 0.000000
		CHANNELS 3 Zrotation Yrotation Xrotation
		JOINT RightUpLeg
		{
			OFFSET -1.800000 -1.400000 0.085000
			CHANNELS 3 Zrotation Yrotation Xrotation
			JOINT RightLeg
			{
				OFFSET -2.215000 -6.000000 0.000000
				CHANNELS 3 Zrotation Yrotation Xrotation
				JOINT RightFoot
				{
					OFFSET -2.500000 -6.900000 0.000000
					CHANNELS 3 Zrotation Yrotation Xrotation
					JOINT RightToeBase
					{
						OFFSET -0.200000 -0.500000 1.950000
						CHANNELS 3 Zrotation Yrotation Xrotation
						End Site
						{
							OFFSET 0.000000 0.000000 0.000000
						}
					}
				}
			}
		}
	}
	JOINT LowerBack
	{
		OFFSET 0.000000 0.000000 0.000000
		CHANNELS 3 Zrotation Yrotation Xrotation
		JOINT Spine
		{
			OFFSET -0.087000 1.940000 -0.288900
			CHANNELS 3 Zrotation Yrotation Xrotation
			JOINT Spine1
			{
				OFFSET 0.000000 1.950000 0.060000
				CHANNELS 3 Zrotation Yrotation Xrotation
				JOINT Neck
				{
					OFFSET 0.000000 0.000000 0.000000
					CHANNELS 3 Zrotation Yrotation Xrotation
					JOINT Neck1
					{
						OFFSET 0.000000 1.600000 0.340000
						CHANNELS 3 Zrotation Yrotation Xrotation
						JOINT Head
						{
							OFFSET 0.000000 1.667000 -0.240000
							CHANNELS 3 Zrotation Yrotation Xrotation
							End Site
							{
								OFFSET 0.000000 0.000000 0.000000
							}
						}
					}
				}
				JOINT LeftShoulder
				{
					OFFSET 0.000000 0.000000 0.000000
					CHANNELS 3 Zrotation Yrotation Xrotation
					JOINT LeftArm
					{
						OFFSET 2.700000 1.550000 -0.730000
						CHANNELS 3 Zrotation Yrotation Xrotation
						JOINT LeftForeArm
						{
							OFFSET 5.450000 0.000000 0.000000
							CHANNELS 3 Zrotation Yrotation Xrotation
							JOINT LeftHand
							{
								OFFSET 3.450000 0.000000 0.000000
								CHANNELS 3 Zrotation Yrotation Xrotation
								JOINT LeftHandIndex1
								{
									OFFSET 0.750000 0.000000 0.000000
									CHANNELS 3 Zrotation Yrotation Xrotation
									End Site
									{
										OFFSET 0.000000 0.000000 0.000000
									}
								}
							}
						}
					}
				}
				JOINT RightShoulder
				{
					OFFSET 0.000000 0.000000 0.000000
					CHANNELS 3 Zrotation Yrotation Xrotation
					JOINT RightArm
					{
						OFFSET -2.700000 1.550000 -0.730000
						CHANNELS 3 Zrotation Yrotation Xrotation
						JOINT RightForeArm
						{
							OFFSET -5.450000 0.000000 0.000000
							CHANNELS 3 Zrotation Yrotation Xrotation
							JOINT RightHand
							{
								OFFSET -3.450000 0.000000 0.000000
								CHANNELS 3 Zrotation Yrotation Xrotation
								JOINT RightHandIndex1
								{
									OFFSET -0.750000 0.000000 0.000000
									CHANNELS 3 Zrotation Yrotation Xrotation
									End Site
									{
										OFFSET 0.000000 0.000000 0.000000
									}
								}
							}
						}
					}
				}
			}
		}
	}
}
MOTION
Frames: 8
Frame Time: 0.016667
-10.940850 17.611830 -8.077450 -4.661765 -11.471091 -8.406547 -15.082798 12.554536 3.540466 8.477004 -2.351093 -15.013439 -7.279560 2.235499 -8.692931 -0.760509 3.734211 3.208137 0.456520 0.484050 0.645770 18.612702 -9.513992 3.042647 -4.938331 -4.857817 16.800093 10.326645 -5.956591 -0.614868 -1.025230 -5.830271 2.096479 0.568820 0.112010 -0.003210 -4.173599 -4.148228 -7.608984 13.903669 -1.928339 12.259791 -5.195869 1.648063 20.432652 -5.576044 -6.087990 -18.150550 -22.445693 31.015018 27.797075 3.006060 27.541770 -11.112730 -4.564891 -32.308863 1.539431 -2.879836 -33.451841 -4.250770 10.493337 -37.280279 -3.557954 -3.748505 3.222648 0.422160 0.108890 0.081650 -0.098240 13.858603 26.484402 16.740093 -1.180202 -3.919291 0.524672 -12.438005 2.000817 -0.768884 2.629918 -1.399013 -0.440410 0.287490 -0.096720 -0.309330 
-10.943830 17.610040 -8.077160 -4.387258 -11.413694 -8.377508 -15.092925 12.585966 3.541330 8.175575 -2.390043 -15.072535 -7.218929 2.233713 -8.609767 -0.746642 3.707393 3.217782 0.441380 0.468470 0.623500 18.598125 -9.509230 3.042213 -5.139877 -4.738458 16.737342 10.195692 -5.926838 -0.609235 -1.007377 -5.836562 2.096348 0.556860 0.122180 0.003940 -4.134137 -4.204343 -7.617015 13.506767 -1.790704 12.211324 -5.132121 1.779329 20.575922 -5.564227 -6.028766 -18.263956 -22.193016 30.821708 27.843680 3.172160 27.454790 -10.299880 -4.340296 -32.397855 1.593982 -2.690046 -33.155465 -4.374413 10.396083 -37.408781 -3.523346 -3.756124 3.263301 0.398130 0.120740 0.064570 -0.098620 13.610884 26.626582 16.822188 -0.842252 -3.852514 0.379237 -13.226276 1.096548 -0.740856 2.665068 -1.424518 -0.430810 0.267120 -0.088710 -0.300810 
-10.940820 17.615290 -8.076910 -4.619375 -11.003720 -8.316591 -15.072710 12.536519 3.541846 8.312070 -2.404477 -15.157388 -7.276983 2.218283 -8.734933 -0.714576 3.696828 3.233601 0.434160 0.462950 0.619460 18.623953 -9.518500 3.056478 -4.858354 -4.854578 16.852043 10.136290 -5.878958 -0.893940 -1.012406 -5.843047 2.104946 0.543070 0.125410 -0.000840 -4.201708 -4.102615 -7.618206 14.143710 -1.998106 12.206180 -5.585537 1.625743 20.642483 -5.286462 -5.954637 -18.447479 -22.151533 30.676416 28.274572 3.067380 27.510350 -9.724280 -4.683595 -32.749467 1.763952 -2.486192 -32.738688 -4.694249 10.325450 -37.768543 -3.513668 -3.745460 3.276860 0.386400 0.122230 0.063030 -0.088920 13.427530 26.814183 16.870820 -0.220546 -3.532678 0.130839 -14.189567 -0.084360 -0.680449 2.719202 -1.441857 -0.425050 0.259440 -0.104120 -0.291170 
-10.941100 17.615830 -8.076650 -4.727785 -10.628510 -8.247899 -15.061599 12.518663 3.526589 8.225304 -2.419502 -15.385809 -7.170680 2.217057 -8.634968 -0.714371 3.649368 3.251889 0.427610 0.465830 0.606960 18.638027 -9.528104 3.071321 -4.694869 -4.930136 16.897441 10.246351 -5.855550 -1.115131 -1.008460 -5.850015 2.115715 0.543640 0.127520 -0.016470 -4.237191 -4.049073 -7.611262 14.517010 -2.062894 12.202220 -5.770283 1.592783 20.643586 -5.204328 -5.908222 -18.496091 -22.124285 30.596960 28.506539 3.178650 27.465230 -9.375010 -4.590331 -32.826575 1.766418 -2.589120 -32.842730 -4.661497 10.306352 -37.696246 -3.484245 -3.740799 3.270984 0.376300 0.124230 0.054360 -0.086140 13.169677 26.816262 16.887144 0.156423 -3.524841 0.032644 -14.672780 -0.513834 -0.654012 2.735463 -1.448856 -0.427370 0.262370 -0.108200 -0.287040 
-10.939800 17.619470 -8.079690 -4.733645 -10.126310 -8.258584 -15.052780 12.528503 3.503520 7.997089 -2.441392 -15.644178 -7.053653 2.236092 -8.315410 -0.713521 3.584046 3.277098 0.431010 0.470960 0.613400 18.644137 -9.551087 3.079901 -4.724842 -4.965186 16.865227 10.544459 -5.904888 -1.088995 -1.013051 -5.856746 2.117786 0.539990 0.120630 -0.018430 -4.256137 -4.010995 -7.602536 14.654879 -2.171053 12.333513 -5.982876 1.513850 20.248599 -5.070565 -5.886713 -18.230224 -22.031929 30.476072 28.873409 3.019450 27.480740 -9.380430 -5.064260 -32.740530 1.487875 -2.342751 -33.238988 -4.366643 9.156842 -37.332144 -2.916331 -3.733199 3.270393 0.375430 0.120300 0.061030 -0.082250 13.352208 26.730219 16.821606 0.225146 -3.367597 -0.038620 -14.889257 -0.722523 -0.635404 2.747468 -1.453745 -0.421810 0.258380 -0.120510 -0.284570 
-10.937880 17.617170 -8.080880 -4.600010 -10.160592 -8.263638 -15.067729 12.534088 3.513076 7.752057 -2.470121 -15.559831 -6.945928 2.192377 -8.576269 -0.719465 3.591019 3.284616 0.429450 0.468680 0.616000 18.631417 -9.538856 3.067729 -4.858465 -4.877517 16.815045 10.494413 -5.909826 -0.983576 -1.006888 -5.859716 2.121558 0.544060 0.131580 -0.018460 -4.218227 -4.045538 -7.603174 14.383541 -2.025801 12.344348 -5.749840 1.586085 20.284903 -5.169839 -5.912893 -17.997587 -21.838339 30.235113 28.757419 2.701400 27.400780 -9.486600 -4.764653 -32.424020 1.389765 -2.420951 -33.475384 -4.150757 8.825689 -37.341666 -2.781816 -3.739556 3.255687 0.373840 0.131290 0.056330 -0.079460 13.201554 26.571339 16.680972 -0.094431 -3.153623 0.005557 -14.572928 -0.484580 -0.675693 2.733691 -1.445194 -0.430340 0.268520 -0.121090 -0.285650 
-10.937440 17.622360 -8.087680 -4.451269 -10.263387 -8.619634 -15.066274 12.552918 3.508487 7.599371 -2.411843 -15.199806 -6.852576 2.206459 -8.603578 -0.720760 3.589850 3.289317 0.431260 0.473390 0.630390 18.625737 -9.557106 3.079532 -5.070553 -4.835762 17.027530 10.502673 -5.942536 -0.942921 -1.016874 -5.874044 2.119024 0.545890 0.121640 -0.027200 -4.208917 -4.037922 -7.625272 14.128108 -1.908294 12.872795 -5.591175 1.715528 20.647753 -5.220968 -5.880797 -18.051909 -21.765942 30.091825 28.868443 2.291260 27.472530 -10.087450 -4.597325 -32.713606 1.183675 -1.915296 -33.267380 -4.438708 8.299912 -37.200446 -2.579585 -3.731220 3.246506 0.384890 0.124740 0.067070 -0.083990 13.068299 26.807080 16.906015 -0.369721 -3.526630 0.084464 -14.163499 0.013556 -0.709746 2.721822 -1.424366 -0.435830 0.279690 -0.127210 -0.291650 
-10.934960 17.624680 -8.090360 -4.351331 -10.350802 -8.932788 -15.060330 12.548484 3.489246 7.527653 -2.355503 -14.947276 -6.805717 2.221292 -8.548698 -0.738762 3.598667 3.284428 0.451090 0.502640 0.644900 18.633243 -9.572165 3.079453 -5.269767 -4.825089 17.290260 10.546521 -5.989094 -0.891137 -1.034384 -5.917745 2.101557 0.568900 0.116710 -0.018980 -4.228874 -4.013677 -7.610431 14.098833 -1.862428 13.147385 -5.523450 1.781038 21.482721 -5.523156 -5.853612 -18.169623 -21.603797 29.906063 28.506880 1.773630 27.453500 -10.846980 -3.569034 -32.852755 1.229890 -2.017209 -32.937929 -4.857503 9.312527 -37.244096 -3.091678 -3.739020 3.241098 0.386100 0.131980 0.078050 -0.081330 12.503405 26.769941 16.891171 -0.536781 -3.541604 0.243711 -13.570573 0.772575 -0.787853 2.687635 -1.417238 -0.432980 0.287460 -0.133440 -0.294620 
